<svg id="eicTV54DAZU1" xmlns="http://www.w3.org/2000/svg" xmlns:xlink="http://www.w3.org/1999/xlink" viewBox="0 0 600 600" shape-rendering="geometricPrecision" text-rendering="geometricPrecision" project-id="0474de97f88547bcb0a84c55c47c56c1" export-id="15f56e852e9d42a39a91fec36b6eda72" cached="false"><defs><linearGradient id="eicTV54DAZU3-fill" x1="-0.78" y1="6.34" x2="9.66" y2="6.34" spreadMethod="pad" gradientUnits="userSpaceOnUse" gradientTransform="translate(0 0)"><stop id="eicTV54DAZU3-fill-0" offset="4%" stop-color="#efefef"/><stop id="eicTV54DAZU3-fill-1" offset="21%" stop-color="#d8dbe6"/><stop id="eicTV54DAZU3-fill-2" offset="45%" stop-color="#f7f7f7"/></linearGradient><linearGradient id="eicTV54DAZU4-fill" x1="-0.78" y1="11.27" x2="9.66" y2="11.27" spreadMethod="pad" gradientUnits="userSpaceOnUse" gradientTransform="translate(0 0)"><stop id="eicTV54DAZU4-fill-0" offset="4%" stop-color="#efefef"/><stop id="eicTV54DAZU4-fill-1" offset="21%" stop-color="#d8dbe6"/><stop id="eicTV54DAZU4-fill-2" offset="45%" stop-color="#f7f7f7"/></linearGradient><linearGradient id="eicTV54DAZU5-fill" x1="-0.78" y1="11.27" x2="9.66" y2="11.27" spreadMethod="pad" gradientUnits="userSpaceOnUse" gradientTransform="translate(0 0)"><stop id="eicTV54DAZU5-fill-0" offset="4%" stop-color="#efefef"/><stop id="eicTV54DAZU5-fill-1" offset="21%" stop-color="#d8dbe6"/><stop id="eicTV54DAZU5-fill-2" offset="45%" stop-color="#f7f7f7"/></linearGradient><linearGradient id="eicTV54DAZU7-fill" x1="0" y1="0.5" x2="1" y2="0.5" spreadMethod="pad" gradientUnits="objectBoundingBox" gradientTransform="translate(0 0)"><stop id="eicTV54DAZU7-fill-0" offset="0%" stop-color="#ff5c8a"/><stop id="eicTV54DAZU7-fill-1" offset="100%" stop-color="#ff9356"/></linearGradient><linearGradient id="eicTV54DAZU8-fill" x1="201.8" y1="359.17" x2="201.8" y2="342.16" spreadMethod="pad" gradientUnits="userSpaceOnUse" gradientTransform="translate(0 0)"><stop id="eicTV54DAZU8-fill-0" offset="16%" stop-color="rgba(216,219,230,0)"/><stop id="eicTV54DAZU8-fill-1" offset="32%" stop-color="rgba(216,219,230,0.7)"/><stop id="eicTV54DAZU8-fill-2" offset="52%" stop-color="rgba(216,219,230,0)"/></linearGradient><linearGradient id="eicTV54DAZU9-fill" x1="0" y1="-5.26" x2="0" y2="3.01" spreadMethod="pad" gradientUnits="userSpaceOnUse" gradientTransform="translate(0 0)"><stop id="eicTV54DAZU9-fill-0" offset="20%" stop-color="#b3b3b3"/><stop id="eicTV54DAZU9-fill-1" offset="100%" stop-color="#ededed"/></linearGradient><linearGradient id="eicTV54DAZU10-fill" x1="9.56" y1="-2.64" x2="9.56" y2="3.53" spreadMethod="pad" gradientUnits="userSpaceOnUse" gradientTransform="translate(0 0)"><stop id="eicTV54DAZU10-fill-0" offset="20%" stop-color="#b3b3b3"/><stop id="eicTV54DAZU10-fill-1" offset="100%" stop-color="#ededed"/></linearGradient></defs><g transform="matrix(2 0 0 2-99.999985-102)"><rect width="8.7" height="12.68" rx="1.47" ry="1.47" transform="translate(123.2 92.42)" fill="url(#eicTV54DAZU3-fill)"/><rect width="8.7" height="22.55" rx="1.97" ry="1.97" transform="translate(123.2 115.27)" fill="url(#eicTV54DAZU4-fill)"/><rect width="8.7" height="22.55" rx="1.97" ry="1.97" transform="translate(123.2 142.98)" fill="url(#eicTV54DAZU5-fill)"/><rect width="286.5" height="132" rx="12.27" ry="12.27" transform="matrix(0 1-1 0 267.86 60)" fill="#1a0e2a"/><path d="M255.53,51h-107.46c-11.733417.032959-21.237041,9.536583-21.27,21.27v262c.032959,11.733417,9.536583,21.237041,21.27,21.27h107.46c11.733417-.032959,21.237041-9.536583,21.27-21.27v-262c-.032959-11.733417-9.536583-21.237041-21.27-21.27ZM267.8,334.23c0,6.776534-5.493466,12.27-12.27,12.27h-107.46c-6.776534,0-12.27-5.493466-12.27-12.27v-262c.022041-6.760908,5.509056-12.230036,12.27-12.23h15.73c.552285,0,1,.447715,1,1v1.11c.010996,4.629107,3.760893,8.379004,8.39,8.39h57.23c4.629107-.010996,8.379004-3.760893,8.39-8.39v-1.11c0-.552285.447715-1,1-1h15.73c6.772628.00552,12.260002,5.497369,12.26,12.27Z" fill="url(#eicTV54DAZU7-fill)"/><path d="M255.53,351h-107.46c-11.733417-.032959-21.237041-9.536583-21.27-21.27v4.5c.032959,11.733417,9.536583,21.237041,21.27,21.27h107.46c11.733417-.032959,21.237041-9.536583,21.27-21.27v-4.5c-.032959,11.733417-9.536583,21.237041-21.27,21.27Z" fill="url(#eicTV54DAZU8-fill)"/><circle r="1.72" transform="translate(217.71 62.59)" fill="url(#eicTV54DAZU9-fill)"/><rect width="19.13" height="2.56" rx="1.28" ry="1.28" transform="translate(192.24 61.31)" fill="url(#eicTV54DAZU10-fill)"/><g transform="matrix(1.43 0 0 1.43-372.06394 231.786338)"><path d="M125.35542,121.9545h-13.86414L99.98836,87.44266L88.48384,121.9545h-13.86328L92.64302,72.04483h14.68921l18.02319,49.90967Z" transform="translate(301.889-122.013)" fill="#ff5c8a" stroke="#e98819" stroke-width="0" stroke-miterlimit="2"/><path d="M93.42134,113.17764c0-3.72205,2.92346-6.73901,6.52954-6.73901s6.52954,3.01697,6.52954,6.73901-2.92346,6.73901-6.52954,6.73901-6.52954-3.01696-6.52954-6.73901Z" transform="translate(301.889-122.013)" fill="#ebe9e6" stroke="#ebe9e6" stroke-width="0" stroke-miterlimit="2"/></g></g></svg>
