<svg id="eGwuKyk0lxf1" xmlns="http://www.w3.org/2000/svg" xmlns:xlink="http://www.w3.org/1999/xlink" viewBox="0 0 600 300" shape-rendering="geometricPrecision" text-rendering="geometricPrecision" project-id="cfedb631702f44519d0a5f23266a12c6" export-id="5ed65eed17c94f349db8c90e6b24eeac" cached="false"><defs><linearGradient id="eGwuKyk0lxf4-fill" x1="-0.78" y1="6.34" x2="9.66" y2="6.34" spreadMethod="pad" gradientUnits="userSpaceOnUse" gradientTransform="translate(0 0)"><stop id="eGwuKyk0lxf4-fill-0" offset="4%" stop-color="#efefef"/><stop id="eGwuKyk0lxf4-fill-1" offset="21%" stop-color="#d8dbe6"/><stop id="eGwuKyk0lxf4-fill-2" offset="45%" stop-color="#f7f7f7"/></linearGradient><linearGradient id="eGwuKyk0lxf5-fill" x1="-0.78" y1="11.27" x2="9.66" y2="11.27" spreadMethod="pad" gradientUnits="userSpaceOnUse" gradientTransform="translate(0 0)"><stop id="eGwuKyk0lxf5-fill-0" offset="4%" stop-color="#efefef"/><stop id="eGwuKyk0lxf5-fill-1" offset="21%" stop-color="#d8dbe6"/><stop id="eGwuKyk0lxf5-fill-2" offset="45%" stop-color="#f7f7f7"/></linearGradient><linearGradient id="eGwuKyk0lxf6-fill" x1="-0.78" y1="11.27" x2="9.66" y2="11.27" spreadMethod="pad" gradientUnits="userSpaceOnUse" gradientTransform="translate(0 0)"><stop id="eGwuKyk0lxf6-fill-0" offset="4%" stop-color="#efefef"/><stop id="eGwuKyk0lxf6-fill-1" offset="21%" stop-color="#d8dbe6"/><stop id="eGwuKyk0lxf6-fill-2" offset="45%" stop-color="#f7f7f7"/></linearGradient><linearGradient id="eGwuKyk0lxf8-fill" x1="0" y1="0.5" x2="1" y2="0.5" spreadMethod="pad" gradientUnits="objectBoundingBox" gradientTransform="translate(0 0)"><stop id="eGwuKyk0lxf8-fill-0" offset="0%" stop-color="#ff5c8a"/><stop id="eGwuKyk0lxf8-fill-1" offset="100%" stop-color="#ff9356"/></linearGradient><linearGradient id="eGwuKyk0lxf9-fill" x1="201.8" y1="359.17" x2="201.8" y2="342.16" spreadMethod="pad" gradientUnits="userSpaceOnUse" gradientTransform="translate(0 0)"><stop id="eGwuKyk0lxf9-fill-0" offset="16%" stop-color="rgba(216,219,230,0)"/><stop id="eGwuKyk0lxf9-fill-1" offset="32%" stop-color="rgba(216,219,230,0.7)"/><stop id="eGwuKyk0lxf9-fill-2" offset="52%" stop-color="rgba(216,219,230,0)"/></linearGradient><linearGradient id="eGwuKyk0lxf10-fill" x1="0" y1="-5.26" x2="0" y2="3.01" spreadMethod="pad" gradientUnits="userSpaceOnUse" gradientTransform="translate(0 0)"><stop id="eGwuKyk0lxf10-fill-0" offset="20%" stop-color="#b3b3b3"/><stop id="eGwuKyk0lxf10-fill-1" offset="100%" stop-color="#ededed"/></linearGradient><linearGradient id="eGwuKyk0lxf11-fill" x1="9.56" y1="-2.64" x2="9.56" y2="3.53" spreadMethod="pad" gradientUnits="userSpaceOnUse" gradientTransform="translate(0 0)"><stop id="eGwuKyk0lxf11-fill-0" offset="20%" stop-color="#b3b3b3"/><stop id="eGwuKyk0lxf11-fill-1" offset="100%" stop-color="#ededed"/></linearGradient></defs><g transform="translate(3.28494-139.113632)"><g transform="matrix(.647527-.056651 0.056651 0.647527-81.9514 168.821)"><rect width="8.7" height="12.68" rx="1.47" ry="1.47" transform="translate(123.2 92.42)" fill="url(#eGwuKyk0lxf4-fill)"/><rect width="8.7" height="22.55" rx="1.97" ry="1.97" transform="translate(123.2 115.27)" fill="url(#eGwuKyk0lxf5-fill)"/><rect width="8.7" height="22.55" rx="1.97" ry="1.97" transform="translate(123.2 142.98)" fill="url(#eGwuKyk0lxf6-fill)"/><rect width="286.5" height="132" rx="12.27" ry="12.27" transform="matrix(0 1-1 0 267.86 60)" fill="#1a0e2a"/><path d="M255.53,51h-107.46c-11.733417.032959-21.237041,9.536583-21.27,21.27v262c.032959,11.733417,9.536583,21.237041,21.27,21.27h107.46c11.733417-.032959,21.237041-9.536583,21.27-21.27v-262c-.032959-11.733417-9.536583-21.237041-21.27-21.27ZM267.8,334.23c0,6.776534-5.493466,12.27-12.27,12.27h-107.46c-6.776534,0-12.27-5.493466-12.27-12.27v-262c.022041-6.760908,5.509056-12.230036,12.27-12.23h15.73c.552285,0,1,.447715,1,1v1.11c.010996,4.629107,3.760893,8.379004,8.39,8.39h57.23c4.629107-.010996,8.379004-3.760893,8.39-8.39v-1.11c0-.552285.447715-1,1-1h15.73c6.772628.00552,12.260002,5.497369,12.26,12.27v261.96Z" fill="url(#eGwuKyk0lxf8-fill)"/><path d="M255.53,351h-107.46c-11.733417-.032959-21.237041-9.536583-21.27-21.27v4.5c.032959,11.733417,9.536583,21.237041,21.27,21.27h107.46c11.733417-.032959,21.237041-9.536583,21.27-21.27v-4.5c-.032959,11.733417-9.536583,21.237041-21.27,21.27Z" fill="url(#eGwuKyk0lxf9-fill)"/><circle r="1.72" transform="translate(217.71 62.59)" fill="url(#eGwuKyk0lxf10-fill)"/><rect width="19.13" height="2.56" rx="1.28" ry="1.28" transform="translate(192.24 61.31)" fill="url(#eGwuKyk0lxf11-fill)"/><g transform="matrix(1.43 0 0 1.43-372.064 231.786)"><path d="M125.35542,121.9545h-13.86414L99.98836,87.44266L88.48384,121.9545h-13.86328L92.64302,72.04483h14.68921l18.02319,49.90967Z" transform="translate(301.889-122.013)" fill="#ff5c8a" stroke="#e98819" stroke-width="0" stroke-miterlimit="2"/><path d="M93.42134,113.17764c0-3.72205,2.92346-6.73901,6.52954-6.73901s6.52954,3.01697,6.52954,6.73901-2.92346,6.73901-6.52954,6.73901-6.52954-3.01696-6.52954-6.73901Z" transform="translate(301.889-122.013)" fill="#ebe9e6" stroke="#ebe9e6" stroke-width="0" stroke-miterlimit="2"/></g></g><g transform="matrix(1.08 0 0 1.08-200.158-221.458)"><g><g transform="matrix(1.38 0 0 1.38-200.666-208.058)"><path d="M361.474,-24.544c-.288-.288-.64-.448-1.088-.448h-17.12c-.448,0-.832.16-1.12.448s-.416.64-.416,1.088.128.832.416,1.12.672.416,1.12.416h6.912v20.256c0,.48.16.864.48,1.184s.704.48,1.184.48c.448,0,.864-.16,1.184-.48s.48-.704.48-1.184v-20.256h6.88c.448,0,.8-.128,1.088-.416s.448-.672.448-1.12-.16-.8-.448-1.088Z" transform="matrix(.9 0 0 0.9 51.5451 535.08)" fill="#ff9356" stroke="#e98819" stroke-width="0" stroke-miterlimit="2"/><path d="M374.8745,-17.568c-.448,0-.832.16-1.152.48s-.448.672-.448,1.12v7.968c0,1.376-.512,2.56-1.472,3.52-.992.992-2.144,1.472-3.52,1.472s-2.528-.48-3.52-1.472c-.96-.96-1.44-2.144-1.44-3.52v-7.968c0-.448-.16-.8-.48-1.12s-.672-.48-1.12-.48-.832.16-1.152.48-.448.672-.448,1.12v7.968c0,2.272.768,4.192,2.368,5.792s3.52,2.4,5.792,2.4c2.24,0,4.192-.8,5.792-2.4s2.4-3.52,2.4-5.792v-7.968c0-.448-.16-.8-.48-1.12s-.672-.48-1.12-.48Z" transform="matrix(.9 0 0 0.9 51.5451 535.08)" fill="#ff9356" stroke="#e98819" stroke-width="0" stroke-miterlimit="2"/><path d="M410.638,-2.336l-9.024-21.536c-.288-.736-.8-1.12-1.568-1.12-.736,0-1.248.384-1.568,1.12L389.486,-2.4c-.128.288-.16.544-.16.736c0,.48.128.864.448,1.184s.704.48,1.184.48c.32,0,.608-.064.896-.256.256-.192.48-.416.64-.768l7.616-18.624l7.488,18.624c.096.32.32.576.608.768s.576.256.928.256c.448,0,.864-.16,1.184-.48s.48-.704.48-1.152c0-.192-.064-.416-.16-.704Z" transform="matrix(.9 0 0 0.9 51.5451 535.08)" fill="#ff9356" stroke="#e98819" stroke-width="0" stroke-miterlimit="2"/><path d="M429.266,-15.008c-1.728-1.728-3.808-2.592-6.272-2.592s-4.544.864-6.272,2.592-2.592,3.84-2.592,6.272v14.72c0,.448.128.8.448,1.088.288.32.64.448,1.088.448.416,0,.768-.128,1.056-.448.32-.288.48-.64.48-1.088v-8c1.632,1.44,3.584,2.176,5.792,2.176c2.464,0,4.544-.864,6.272-2.592c1.728-1.76,2.624-3.84,2.624-6.304c0-2.432-.896-4.544-2.624-6.272Zm-6.272,12.096c-1.6,0-2.976-.576-4.096-1.696-1.152-1.152-1.696-2.528-1.696-4.128c0-1.024.256-2.016.768-2.912s1.216-1.6,2.112-2.112s1.856-.768,2.912-.768c1.6,0,2.976.576,4.096,1.696c1.152,1.152,1.728,2.496,1.728,4.096s-.576,2.976-1.728,4.128c-1.12,1.12-2.496,1.696-4.096,1.696Z" transform="matrix(.9 0 0 0.9 51.5451 535.08)" fill="#ff9356" stroke="#e98819" stroke-width="0" stroke-miterlimit="2"/><path d="M451.766,-15.008c-1.728-1.728-3.808-2.592-6.272-2.592s-4.544.864-6.272,2.592-2.592,3.84-2.592,6.272v14.72c0,.448.128.8.448,1.088.288.32.64.448,1.088.448.416,0,.768-.128,1.056-.448.32-.288.48-.64.48-1.088v-8c1.632,1.44,3.584,2.176,5.792,2.176c2.464,0,4.544-.864,6.272-2.592c1.728-1.76,2.624-3.84,2.624-6.304c0-2.432-.896-4.544-2.624-6.272Zm-6.272,12.096c-1.6,0-2.976-.576-4.096-1.696-1.152-1.152-1.696-2.528-1.696-4.128c0-1.024.256-2.016.768-2.912s1.216-1.6,2.112-2.112s1.856-.768,2.912-.768c1.6,0,2.976.576,4.096,1.696c1.152,1.152,1.728,2.496,1.728,4.096s-.576,2.976-1.728,4.128c-1.12,1.12-2.496,1.696-4.096,1.696Z" transform="matrix(.9 0 0 0.9 51.5451 535.08)" fill="#ff9356" stroke="#e98819" stroke-width="0" stroke-miterlimit="2"/><path d="M476.025,0.128c2.112,0,3.968-.64,5.6-1.984.352-.256.512-.608.576-1.024.032-.448-.064-.8-.352-1.152-.256-.32-.608-.512-1.024-.544s-.8.064-1.12.352c-1.088.864-2.304,1.28-3.68,1.28-1.6,0-2.976-.544-4.096-1.696-1.152-1.12-1.696-2.496-1.696-4.096s.544-2.976,1.696-4.128c1.12-1.12,2.496-1.696,4.096-1.696c1.312,0,2.496.416,3.552,1.216c1.024.8,1.696,1.824,2.048,3.072h-5.6c-.416,0-.8.16-1.088.448s-.448.672-.448,1.088.16.8.448,1.088.672.448,1.088.448h7.36c.416,0,.768-.16,1.056-.448.32-.288.48-.672.48-1.088c0-2.464-.896-4.544-2.624-6.272s-3.808-2.624-6.272-2.624-4.544.896-6.272,2.624-2.592,3.808-2.592,6.272.864,4.544,2.592,6.272s3.808,2.592,6.272,2.592Z" transform="matrix(.9 0 0 0.9 51.5451 535.08)" fill="#ff9356" stroke="#e98819" stroke-width="0" stroke-miterlimit="2"/><path d="M503.132,0.096c.448,0,.832-.16,1.152-.48s.448-.704.448-1.152v-8.224c0-2.24-.8-4.16-2.368-5.76-1.6-1.6-3.552-2.4-5.792-2.4-2.272,0-4.192.8-5.792,2.4s-2.4,3.52-2.4,5.76v8.224c0,.448.16.832.48,1.152s.704.448,1.12.448c.448,0,.832-.128,1.152-.448s.448-.704.448-1.152v-8.224c0-1.344.512-2.528,1.472-3.488.96-.992,2.144-1.472,3.52-1.472s2.528.48,3.52,1.472c.96.96,1.44,2.144,1.44,3.488v8.256c0,.416.16.8.48,1.12s.704.48,1.12.48Z" transform="matrix(.9 0 0 0.9 51.5451 535.08)" fill="#ff9356" stroke="#e98819" stroke-width="0" stroke-miterlimit="2"/><path d="M531.0235,-15.232c-1.248-.704-2.624-1.088-4.128-1.088h-3.712v-5.408h9.056c.448,0,.832-.16,1.152-.48s.48-.672.48-1.12-.16-.832-.48-1.152-.704-.512-1.152-.512h-10.688c-.48,0-.864.16-1.152.48-.32.32-.448.736-.448,1.184v8.64c0,.48.128.864.448,1.184.288.32.672.448,1.152.448h5.344c.896,0,1.728.224,2.496.64.736.448,1.312,1.024,1.76,1.76.416.768.64,1.6.64,2.496c0,.928-.224,1.76-.64,2.496-.448.768-1.024,1.344-1.76,1.76-.768.448-1.6.64-2.496.64-.928,0-1.76-.192-2.496-.64-.736-.416-1.312-.992-1.728-1.76-.448-.736-.64-1.568-.64-2.496c0-.448-.16-.832-.48-1.152s-.736-.48-1.184-.48c-.48,0-.864.16-1.152.48-.32.32-.448.704-.448,1.152c0,1.536.352,2.944,1.056,4.16.704,1.248,1.664,2.24,2.912,2.944s2.624,1.056,4.16,1.056c1.504,0,2.88-.352,4.128-1.056s2.24-1.696,2.944-2.944s1.088-2.624,1.088-4.16c0-1.504-.384-2.88-1.088-4.128s-1.696-2.24-2.944-2.944Z" transform="matrix(.9 0 0 0.9 51.5451 535.08)" fill="#ff9356" stroke="#e98819" stroke-width="0" stroke-miterlimit="2"/><path d="M573.9315,-24.512c-.32-.32-.736-.48-1.184-.48-.64,0-1.152.32-1.472.896l-9.248,19.04-9.504-19.04c-.352-.576-.832-.896-1.472-.896-.48,0-.864.16-1.184.48s-.48.736-.48,1.184v21.664c0,.48.16.864.48,1.184s.704.48,1.184.48c.448,0,.864-.16,1.184-.48s.48-.704.48-1.184v-15.616l7.648,15.328c.32.672.832.992,1.536.992.576,0,1.056-.256,1.44-.832l7.744-15.776v15.904c0,.48.16.864.48,1.184s.704.48,1.184.48c.448,0,.832-.16,1.152-.48s.512-.704.512-1.184v-21.664c0-.448-.16-.864-.48-1.184Z" transform="matrix(.9 0 0 0.9 51.5451 535.08)" fill="#ff9356" stroke="#e98819" stroke-width="0" stroke-miterlimit="2"/><path d="M581.273,-17.056c-.32.32-.448.704-.448,1.184v14.24c0,.48.128.864.448,1.184s.704.448,1.184.448.864-.128,1.184-.448c.288-.32.448-.704.448-1.184v-14.24c0-.48-.16-.864-.448-1.184-.32-.288-.704-.448-1.184-.448s-.864.16-1.184.448Zm2.656-6.88c-.416-.416-.896-.64-1.472-.64s-1.088.224-1.504.64-.608.896-.608,1.472.192,1.088.608,1.504.928.608,1.504.608s1.056-.192,1.472-.608.64-.928.64-1.504-.224-1.056-.64-1.472Z" transform="matrix(.9 0 0 0.9 51.5452 535.08)" fill="#ff9356" stroke="#e98819" stroke-width="0" stroke-miterlimit="2"/><path d="M604.9445,0.096c.448,0,.832-.16,1.152-.48s.448-.704.448-1.152v-8.224c0-2.24-.8-4.16-2.368-5.76-1.6-1.6-3.552-2.4-5.792-2.4-2.272,0-4.192.8-5.792,2.4s-2.4,3.52-2.4,5.76v8.224c0,.448.16.832.48,1.152s.704.448,1.12.448c.448,0,.832-.128,1.152-.448s.448-.704.448-1.152v-8.224c0-1.344.512-2.528,1.472-3.488.96-.992,2.144-1.472,3.52-1.472s2.528.48,3.52,1.472c.96.96,1.44,2.144,1.44,3.488v8.256c0,.416.16.8.48,1.12s.704.48,1.12.48Z" transform="matrix(.9 0 0 0.9 51.5451 535.08)" fill="#ff9356" stroke="#e98819" stroke-width="0" stroke-miterlimit="2"/><path d="M626.437,-17.568c-.448,0-.832.16-1.152.48s-.448.672-.448,1.12v7.968c0,1.376-.512,2.56-1.472,3.52-.992.992-2.144,1.472-3.52,1.472s-2.528-.48-3.52-1.472c-.96-.96-1.44-2.144-1.44-3.52v-7.968c0-.448-.16-.8-.48-1.12s-.672-.48-1.12-.48-.832.16-1.152.48-.448.672-.448,1.12v7.968c0,2.272.768,4.192,2.368,5.792s3.52,2.4,5.792,2.4c2.24,0,4.192-.8,5.792-2.4s2.4-3.52,2.4-5.792v-7.968c0-.448-.16-.8-.48-1.12s-.672-.48-1.12-.48Z" transform="matrix(.9 0 0 0.9 51.5451 535.08)" fill="#ff9356" stroke="#e98819" stroke-width="0" stroke-miterlimit="2"/><path d="M641.1135,-3.2c-.928,0-1.728-.32-2.368-.992-.672-.64-.992-1.44-.992-2.368v-7.52h2.848c.384,0,.736-.128,1.024-.416.256-.256.416-.608.416-1.024c0-.384-.16-.736-.416-1.024-.288-.256-.64-.416-1.024-.416h-2.848v-4.512c0-.448-.16-.8-.48-1.12s-.672-.48-1.12-.48-.832.16-1.152.48-.448.672-.448,1.12v14.912c0,1.824.64,3.36,1.92,4.64s2.816,1.92,4.64,1.92c.448,0,.8-.128,1.12-.448s.48-.704.48-1.152-.16-.8-.48-1.12-.672-.48-1.12-.48Z" transform="matrix(.9 0 0 0.9 51.5451 535.08)" fill="#ff9356" stroke="#e98819" stroke-width="0" stroke-miterlimit="2"/><path d="M654.534,0.128c2.464,0,4.544-.864,6.272-2.592s2.624-3.808,2.624-6.272-.896-4.544-2.624-6.272-3.808-2.624-6.272-2.624-4.544.896-6.272,2.624-2.592,3.808-2.592,6.272.864,4.544,2.592,6.272s3.808,2.592,6.272,2.592Zm0-14.688c1.6,0,2.976.576,4.128,1.696c1.12,1.152,1.696,2.528,1.696,4.128s-.576,2.976-1.696,4.096c-1.152,1.152-2.528,1.696-4.128,1.696s-2.976-.544-4.096-1.696c-1.152-1.12-1.696-2.496-1.696-4.096s.544-2.976,1.696-4.128c1.12-1.12,2.496-1.696,4.096-1.696Z" transform="matrix(.9 0 0 0.9 51.5451 535.08)" fill="#ff9356" stroke="#e98819" stroke-width="0" stroke-miterlimit="2"/><path d="M678.111,-16.96c-1.088-.448-2.336-.672-3.712-.672-1.152,0-2.208.192-3.2.544-1.024.384-1.824.928-2.432,1.632-.64.736-.928,1.632-.928,2.656c0,2.592,2.048,4.288,6.144,5.056c1.568.32,2.688.672,3.36,1.12.64.448.992.992.992,1.632c0,.704-.352,1.248-1.024,1.632-.672.416-1.6.608-2.816.608-.928,0-1.792-.16-2.592-.48-.832-.32-1.44-.736-1.824-1.184-.384-.384-.8-.576-1.216-.576-.352,0-.736.16-1.12.448-.448.32-.64.736-.64,1.248c0,.384.128.736.416.992.704.736,1.728,1.312,3.008,1.76s2.624.672,4.096.672c1.44,0,2.688-.224,3.712-.672s1.824-1.088,2.368-1.888c.512-.8.8-1.696.8-2.688c0-1.312-.512-2.4-1.472-3.232s-2.624-1.472-4.928-1.952c-1.152-.224-2.016-.448-2.592-.704-.608-.256-1.024-.512-1.216-.8-.224-.288-.32-.64-.32-1.088c0-.576.288-1.056.928-1.376s1.44-.512,2.432-.512c.832,0,1.568.128,2.176.32.576.192,1.152.544,1.696,1.024.448.416.928.608,1.504.608.352,0,.64-.064.896-.256.352-.288.544-.608.544-.992c0-.32-.16-.672-.416-1.024-.64-.768-1.536-1.408-2.624-1.856Z" transform="matrix(.9 0 0 0.9 51.5451 535.08)" fill="#ff9356" stroke="#e98819" stroke-width="0" stroke-miterlimit="2"/></g><g><g transform="matrix(1.43 0 0 1.43-248.522 470.857)"><path d="M125.35542,121.9545h-13.86414L99.98836,87.44266L88.48384,121.9545h-13.86328L92.64302,72.04483h14.68921l18.02319,49.90967Z" transform="translate(301.889-122.013)" fill="#ff5c8a" stroke="#e98819" stroke-width="0" stroke-miterlimit="2"/><path d="M93.42134,113.17764c0-3.72205,2.92346-6.73901,6.52954-6.73901s6.52954,3.01697,6.52954,6.73901-2.92346,6.73901-6.52954,6.73901-6.52954-3.01696-6.52954-6.73901Z" transform="translate(301.889-122.013)" fill="#ebe9e6" stroke="#ebe9e6" stroke-width="0" stroke-miterlimit="2"/></g><g transform="matrix(1.43 0 0 1.43-238.512 470.857)"><path d="M119.99629,105.14103c0,9.99377-7.30762,18.09521-16.32178,18.09521-3.9668,0-7.60156-1.56982-10.42969-4.17786v18.26075h-11.78417v-49.21545h11.78418v3.12c2.82812-2.60803,6.46289-4.17786,10.42969-4.17786c9.01464-.00001,16.32177,8.10143,16.32177,18.09521Zm-12.104,0c0-4.3009-3.34326-7.78821-7.46777-7.78821s-7.17969,3.4873-7.17969,7.78821c0,4.30164,3.05518,7.78894,7.17969,7.78894s7.46777-3.48804,7.46777-7.78894Z" transform="translate(349.411-121.966)" fill="#ff5c8a" stroke="#e98819" stroke-width="0" stroke-miterlimit="2"/></g><g transform="matrix(1.43 0 0 1.43-228.502 470.857)"><path d="M119.99629,105.14103c0,9.99377-7.30762,18.09521-16.32178,18.09521-3.9668,0-7.60156-1.56982-10.42969-4.17786v18.26075h-11.78417v-49.21545h11.78418v3.12c2.82812-2.60803,6.46289-4.17786,10.42969-4.17786c9.01464-.00001,16.32177,8.10143,16.32177,18.09521Zm-12.104,0c0-4.3009-3.34326-7.78821-7.46777-7.78821s-7.17969,3.4873-7.17969,7.78821c0,4.30164,3.05518,7.78894,7.17969,7.78894s7.46777-3.48804,7.46777-7.78894Z" transform="translate(393.567-121.966)" fill="#ff5c8a" stroke="#e98819" stroke-width="0" stroke-miterlimit="2"/></g><g transform="matrix(1.43 0 0 1.43-218.492 470.857)"><path d="M117.75557,106.42703c0,11.54834-9.08398,16.91284-18.80078,16.91284s-17.0625-5.61572-17.0625-5.61572l5.40869-10.43884c3.28955,3.44055,8.65576,5.07141,11.65381,5.07141c3,0,5.53711-2.31921,5.53711-4.74011c0-8.7876-20.60352-3.23669-20.60352-20.48071c0-11.05298,7.91602-16.38501,16.80469-16.38501c8.56836,0,15.06592,4.03015,15.06592,4.03015l-5.02148,10.10901c0,0-4.20068-3.36987-8.11279-3.36987-2.91797,0-5.53662,1.08289-5.53662,4.29443-.00001,7.46411,20.66698,2.65991,20.66747,20.61242Z" transform="translate(434.645-122.015)" fill="#ff5c8a" stroke="#e98819" stroke-width="0" stroke-miterlimit="2"/></g><g transform="matrix(1.43 0 0 1.43-208.482 470.857)"><path d="M93.48506,75.08781c0-3.72131,2.92334-6.73901,6.5293-6.73901c3.60693,0,6.53027,3.0177,6.53027,6.73901c0,3.72205-2.92334,6.73975-6.53027,6.73975-3.60596-.00001-6.5293-3.01771-6.5293-6.73975Z" transform="translate(463.723-121.989)" fill="#ebe9e6" stroke="#ebe9e6" stroke-width="0" stroke-miterlimit="2"/><path d="M94.0898,121.99552v-33.89258h11.78442v33.89258h-11.78442Z" transform="translate(463.723-121.989)" fill="#ff5c8a" stroke="#e98819" stroke-width="0" stroke-miterlimit="2"/></g><g transform="matrix(1.43 0 0 1.43-198.472 470.857)"><path d="M106.36348,113.47355v9.77844c-6.89941,0-17.72852-1.4552-17.72852-13.25342v-11.50439h-3.71826v-10.39124h3.71826v-10.17382h11.78369v30.0022c.00001,2.01904,1.09522,5.54223,5.94483,5.54223Z" transform="translate(489.983-121.993)" fill="#ff5c8a" stroke="#e98819" stroke-width="0" stroke-miterlimit="2"/><path d="M102.66182,94.82755c0-3.72119,2.92334-6.73901,6.53027-6.73901c3.60596,0,6.5293,3.01782,6.5293,6.73901c0,3.72205-2.92334,6.73914-6.5293,6.73914-3.60693,0-6.53027-3.01709-6.53027-6.73914Z" transform="translate(489.983-121.993)" fill="#ebe9e6" stroke="#ebe9e6" stroke-width="0" stroke-miterlimit="2"/></g><g transform="matrix(1.43 0 0 1.43-188.462 470.857)"><path d="M106.71529,109.6724h11.26465c0,11.86011-12.58813,13.56531-17.79419,13.56531s-18.47314-3.2511-18.47314-18.02246s11.45825-18.36951,18.34863-18.36951c10.64673,0,15.6311,5.49048,17.28784,13.28149.4646,2.16309.67261,4.4989.67261,6.93848h-24.53175c0,5.55249,2.90405,7.72925,7.08398,7.72925c4.17921,0,6.14137-2.34961,6.14137-5.12256ZM93.7729,100.12724h13.20532l-.07642-.04822c0-2.49573-1.88501-5.50415-6.52222-5.50415-4.63011,0-6.60594,3.31372-6.60668,5.55237Z" transform="translate(527.157-121.982)" fill="#ff5c8a" stroke="#e98819" stroke-width="0" stroke-miterlimit="2"/></g></g></g></g></g></svg>
